<svg width="145" height="62" viewBox="0 0 145 62" fill="none" xmlns="http://www.w3.org/2000/svg">
<rect x="1" y="1" width="143" height="60" rx="8" fill="#131313"/>
<rect x="0.5" y="0.5" width="144" height="61" rx="8.5" stroke="#4D4D4D" stroke-opacity="0.5"/>
<g clip-path="url(#clip0_775_36)">
<path fill-rule="evenodd" clip-rule="evenodd" d="M27.1037 20.5V43H21V20.5H27.1037Z" fill="white"/>
<path fill-rule="evenodd" clip-rule="evenodd" d="M30.1558 20.5H43.1261C47.3399 20.5 50.7558 23.8579 50.7558 28C50.7558 32.1422 47.3399 35.5 43.1261 35.5H36.2595V43H30.1558V20.5ZM36.2595 29.5H43.1261C43.9689 29.5 44.6521 28.8284 44.6521 28C44.6521 27.1716 43.9689 26.5 43.1261 26.5H36.2595V29.5Z" fill="white"/>
<path fill-rule="evenodd" clip-rule="evenodd" d="M73.6442 20.5V32.125C73.6442 34.8174 75.8645 37 78.6035 37C81.3424 37 83.5628 34.8174 83.5628 32.125V20.5H89.6666V32.125C89.6666 38.1311 84.7135 43 78.6035 43C72.4935 43 67.5405 38.1311 67.5405 32.125V20.5H73.6442Z" fill="white"/>
<path fill-rule="evenodd" clip-rule="evenodd" d="M53.0446 31C53.0446 25.201 57.8269 20.5 63.7261 20.5H65.252V26.5H63.7261C61.1978 26.5 59.1483 28.5147 59.1483 31V31.75C59.1483 37.9632 54.0245 43 47.7038 43H46.9409V37H47.7038C50.6535 37 53.0446 34.6495 53.0446 31.75V31Z" fill="white"/>
<path d="M124 21.25C124 22.4926 122.976 23.5 121.711 23.5C120.447 23.5 119.422 22.4926 119.422 21.25C119.422 20.0074 120.447 19 121.711 19C122.976 19 124 20.0074 124 21.25Z" fill="white"/>
<path d="M96.2204 43L99.133 31.0109L101.298 38.2236C102.589 42.5255 108.788 42.5255 110.08 38.2236L112.245 31.0109L115.157 43H121.432L116.853 24.1477C115.764 19.6645 109.337 19.4985 108.009 23.9194L105.689 31.65L103.368 23.9194C102.041 19.4985 95.614 19.6645 94.5249 24.1477L89.9453 43H96.2204Z" fill="white"/>
</g>
<defs>
<clipPath id="clip0_775_36">
<rect width="103" height="24" fill="white" transform="translate(21 19)"/>
</clipPath>
</defs>
</svg>
