<svg width="16" height="14" viewBox="0 0 16 14" fill="none" xmlns="http://www.w3.org/2000/svg">
<path d="M12 13.8572H7.99648C7.72768 13.8569 7.46088 13.8256 7.2 13.7648C6.6944 13.6469 6.21096 13.4176 5.77776 13.0867C5.11992 12.5844 4.6072 11.8705 4.30448 11.0351C4.20632 10.7642 4.1316 10.4846 4.0808 10.2C3.97488 9.60711 3.97256 8.99308 4.07688 8.39386C4.2312 7.50709 4.61216 6.69255 5.1716 6.05328C5.73096 5.41392 6.44368 4.97854 7.2196 4.80217C7.24392 4.7966 7.26816 4.79139 7.29248 4.78636C7.52696 4.73827 7.76376 4.71431 8 4.71431C8.5228 4.71431 9.04304 4.83143 9.53072 5.06229C10.2616 5.40825 10.8863 5.99422 11.3258 6.74595C11.7654 7.49776 12 8.3816 12 9.28574H8.8C8.8 9.10489 8.75312 8.92816 8.6652 8.77776C8.57728 8.62746 8.45232 8.51024 8.30616 8.44103C8.16 8.37182 7.99912 8.35372 7.84392 8.38901C7.68872 8.4243 7.54616 8.51134 7.43432 8.63925C7.3224 8.76707 7.24624 8.92999 7.21536 9.10736C7.18448 9.28473 7.20032 9.4686 7.26088 9.63564C7.32144 9.80268 7.424 9.94549 7.55552 10.046C7.68712 10.1464 7.84176 10.2 8 10.2H12C12.105 10.2 12.2091 10.1763 12.3062 10.1304C12.4032 10.0845 12.4914 10.0172 12.5657 9.93223C12.64 9.84729 12.6989 9.74654 12.7391 9.63564C12.7793 9.52473 12.8 9.40579 12.8 9.28574C12.8 7.83084 12.2943 6.43555 11.3941 5.40679C10.4939 4.37795 9.27304 3.80003 8 3.80003C7.86192 3.80003 7.72448 3.80679 7.588 3.82023C7.25256 3.85324 6.9228 3.92638 6.604 4.03719C6.29032 4.14608 5.9872 4.29155 5.69944 4.47111C5.36984 4.67683 5.0604 4.92734 4.7784 5.21918C4.71968 5.27989 4.66216 5.34243 4.60592 5.40679C4.21208 5.8568 3.89376 6.37712 3.66024 6.94179C3.54352 7.22412 3.44792 7.51751 3.3748 7.81886C3.29112 8.16336 3.23672 8.51811 3.21328 8.87833C3.20448 9.01347 3.2 9.14933 3.2 9.28574C3.2 10.0026 3.32296 10.7162 3.56536 11.385C3.92872 12.3875 4.54392 13.2441 5.33328 13.8469C5.33776 13.8504 5.34224 13.8538 5.34672 13.8572H4C3.47472 13.8572 2.95456 13.739 2.46928 13.5092C1.984 13.2794 1.54304 12.9427 1.1716 12.5182C0.80016 12.0937 0.50552 11.5897 0.30448 11.0351C0.10344 10.4805 0 9.88606 0 9.28574C0 6.86087 0.84288 4.53539 2.34312 2.82073C3.84344 1.10617 5.87824 0.142883 8 0.142883C10.1218 0.142883 12.1566 1.10617 13.6569 2.82073C15.1571 4.53539 16 6.86087 16 9.28574C16 9.88606 15.8966 10.4805 15.6955 11.0351C15.4945 11.5897 15.1998 12.0937 14.8284 12.5182C14.457 12.9427 14.016 13.2794 13.5307 13.5092C13.0454 13.739 12.5253 13.8572 12 13.8572Z" fill="white"/>
</svg>
