<svg width="32" height="32" viewBox="0 0 32 32" fill="none" xmlns="http://www.w3.org/2000/svg">
<path fill-rule="evenodd" clip-rule="evenodd" d="M10.4 32C9.03424 32 7.6819 31.6453 6.4201 30.9561C5.15834 30.2669 4.01184 29.2567 3.04609 27.9832C2.08038 26.7097 1.31431 25.1979 0.791653 23.534C0.269006 21.8701 0 20.0867 0 18.2857C0 13.4361 1.68571 8.785 4.6863 5.35576C7.68687 1.92653 11.7566 0 16 0C20.2434 0 24.3131 1.92653 27.3137 5.35576C30.3143 8.785 32 13.4361 32 18.2857C32 20.0867 31.731 21.8701 31.2083 23.534C30.6857 25.1979 29.9196 26.7097 28.9539 27.9832C27.9882 29.2567 26.8417 30.2669 25.5799 30.9561C24.3181 31.6453 22.9658 32 21.6 32H10.4ZM6.94903 7.94175C9.34952 5.19836 12.6052 3.65714 16 3.65714C19.3948 3.65714 22.6505 5.19836 25.051 7.94175C27.4514 10.6852 28.8 14.4059 28.8 18.2857C28.8 19.6735 28.5923 21.0384 28.1966 22.2983C27.8008 23.5582 27.2301 24.6724 26.5357 25.588C25.8421 26.5027 25.0436 27.1956 24.2 27.6564C23.3585 28.1161 22.4766 28.3429 21.6 28.3429H10.4C9.52344 28.3429 8.64152 28.1161 7.79999 27.6564C6.95639 27.1956 6.15792 26.5027 5.4643 25.588C4.76994 24.6724 4.19922 23.5582 3.80346 22.2983C3.40769 21.0384 3.2 19.6735 3.2 18.2857C3.2 14.4059 4.54857 10.6852 6.94903 7.94175Z" fill="white"/>
</svg>
