<svg width="24" height="24" viewBox="0 0 24 24" fill="none" xmlns="http://www.w3.org/2000/svg">
<path fill-rule="evenodd" clip-rule="evenodd" d="M16 23.4286C17.0506 23.4286 18.0909 23.192 19.0614 22.7326C20.0321 22.2731 20.914 21.5997 21.6569 20.7507C22.3998 19.9017 22.989 18.8938 23.391 17.7845C23.793 16.6753 24 15.4863 24 14.2857C24 10.6485 22.7357 7.16012 20.4853 4.58823C18.2349 2.0163 15.1826 0.571411 12 0.571411C8.81744 0.571411 5.76512 2.0163 3.51472 4.58823C1.26428 7.16012 0 10.6485 0 14.2857C0 15.4863 0.206928 16.6753 0.60896 17.7845C1.011 18.8938 1.60028 19.9017 2.34314 20.7507C3.08602 21.5997 3.96793 22.2731 4.93856 22.7326C5.90912 23.192 6.94944 23.4286 8 23.4286H16ZM12 4.22855C9.66608 4.22855 7.42776 5.28812 5.77744 7.1742C4.12712 9.06028 3.2 11.6184 3.2 14.2857C3.2 15.0061 3.32415 15.7194 3.56538 16.385C3.8066 17.0506 4.16016 17.6553 4.60592 18.1646C5.0516 18.6741 5.58072 19.0781 6.16312 19.3539C6.74552 19.6295 7.36968 19.7714 8 19.7714H16C16.6303 19.7714 17.2545 19.6295 17.8369 19.3539C18.4193 19.0781 18.9484 18.6741 19.3941 18.1646C19.8398 17.6553 20.1934 17.0506 20.4346 16.385C20.6758 15.7194 20.8 15.0061 20.8 14.2857C20.8 11.6184 19.8729 9.06028 18.2226 7.1742C16.5722 5.28812 14.3339 4.22855 12 4.22855Z" fill="white"/>
</svg>
